<svg xmlns="http://www.w3.org/2000/svg" xmlns:xlink="http://www.w3.org/1999/xlink" fill="none" version="1.1" width="11" height="16" viewBox="0 0 11 16"><g transform="matrix(1,0,0,-1,0,32)"><path d="M8,20Q8.53125,21.4375,9.53125,22.65625Q9.53125,22.6875,9.53125,22.6875Q9.78125,23.03125,10.0312,23.375Q10.9688,24.71875,11,26.5Q10.9375,28.8438,9.375,30.375Q7.84375,31.9375,5.5,32Q3.15625,31.9375,1.625,30.375Q0.0625,28.8438,0,26.5Q0.03125,24.71875,0.96875,23.375Q1.21875,23.03125,1.46875,22.71875Q1.46875,22.6875,1.46875,22.6875Q2.46875,21.46875,3,20L8,20ZM5.5,16Q6.5625,16.03125,7.28125,16.71875Q7.96875,17.4375,8,18.5L8,19L3,19L3,18.5Q3.03125,17.4375,3.71875,16.71875Q4.4375,16.03125,5.5,16ZM3,26.5Q2.96875,26.0312,2.5,26Q2.03125,26.0312,2,26.5Q2.03125,28,3.03125,28.9688Q4,29.9688,5.5,30Q5.96875,29.9688,6,29.5Q5.96875,29.0312,5.5,29Q4.4375,28.9688,3.71875,28.2812Q3.03125,27.5625,3,26.5Z" fill="#FFFFFF" fill-opacity="1" style="mix-blend-mode:passthrough"/></g></svg>