<svg xmlns="http://www.w3.org/2000/svg" xmlns:xlink="http://www.w3.org/1999/xlink" fill="none" version="1.1" width="35.738372802734375" height="36.017578125" viewBox="0 0 35.738372802734375 36.017578125"><g transform="matrix(1,0,0,-1,0,72.03515625)"><path d="M25.2645,71.956078125Q25.7529,71.674778125,25.8924,71.112278125L27.2878,63.518578125000005L34.8227,62.112278125Q35.3808,61.971678125,35.6599,61.479478125Q35.8692,60.916978125,35.5204,60.354478125L31.1948,54.026378125L35.5204,47.698278125Q35.8692,47.135778125,35.6599,46.573278125Q35.3808,46.081078125,34.8227,45.940428125L27.2878,44.534178125L25.8924,36.940430125Q25.7529,36.377930125,25.2645,36.096679725Q24.7064,35.885742125,24.1483,36.237305125L17.8692,40.596678125L11.5901,36.237305125Q11.032,35.885742125,10.5436,36.096679725Q9.98547,36.377930125,9.84593,36.940430125L8.45058,44.534178125L0.915698,45.940428125Q0.357558,46.081078125,0.0784884,46.573278125Q-0.130814,47.135778125,0.218023,47.698278125L4.5436,54.026378125L0.218023,60.354478125Q-0.130814,60.916978125,0.0784884,61.409178125Q0.357558,61.971678125,0.915698,62.112278125L8.45058,63.518578125000005L9.84593,71.112278125Q9.98547,71.674778125,10.5436,71.956078125Q11.032,72.166978125,11.5901,71.815478125L17.8692,67.456078125L24.1483,71.815478125Q24.7064,72.166978125,25.2645,71.956078125ZM11.1715,54.026378125Q11.1715,55.854478125,12.0785,57.401378125Q12.9855,58.948278125,14.5203,59.862278125Q16.125,60.776378125,17.8692,60.776378125Q19.6134,60.776378125,21.218,59.862278125Q22.7529,58.948278125,23.6599,57.401378125Q24.5669,55.854478125,24.5669,54.026378125Q24.5669,52.198278125,23.6599,50.651378125Q22.7529,49.104478125,21.218,48.190478125Q19.6134,47.276378125,17.8692,47.276378125Q16.125,47.276378125,14.5203,48.190478125Q12.9855,49.104478125,12.0785,50.651378125Q11.1715,52.198278125,11.1715,54.026378125ZM26.7994,54.026378125Q26.7994,56.487278125,25.6134,58.526378125Q24.4273,60.565478125,22.3343,61.831078125000005Q20.2413,63.026378125,17.8692,63.026378125Q15.4971,63.026378125,13.4041,61.831078125000005Q11.311,60.565478125,10.125,58.526378125Q8.93895,56.487278125,8.93895,54.026378125Q8.93895,51.565478125,10.125,49.526378125Q11.311,47.487278125,13.4041,46.221678125Q15.4971,45.026368125,17.8692,45.026368125Q20.2413,45.026368125,22.3343,46.221678125Q24.4273,47.487278125,25.6134,49.526378125Q26.7994,51.565478125,26.7994,54.026378125Z" fill="#FFFFFF" fill-opacity="1" style="mix-blend-mode:passthrough"/></g></svg>