<svg xmlns="http://www.w3.org/2000/svg" xmlns:xlink="http://www.w3.org/1999/xlink" fill="none" version="1.1" width="14" height="14" viewBox="0 0 14 14"><g transform="matrix(1,0,0,-1,0,28)"><path d="M11,22Q12.2812,22.03125,13.125,22.875Q13.9688,23.71875,14,25Q13.9688,26.2812,13.125,27.125Q12.2812,27.9688,11,28Q9.71875,27.9688,8.875,27.125Q8.03125,26.2812,8,25Q8,24.8125,8.03125,24.625L5.09375,23.15625Q4.25,23.96875,3,24Q1.71875,23.96875,0.875,23.125Q0.03125,22.28125,0,21Q0.03125,19.71875,0.875,18.875Q1.71875,18.03125,3,18Q4.25,18.03125,5.09375,18.84375L8.03125,17.375Q8,17.1875,8,17Q8.03125,15.71875,8.875,14.875Q9.71875,14.03125,11,14Q12.2812,14.03125,13.125,14.875Q13.9688,15.71875,14,17Q13.9688,18.28125,13.125,19.125Q12.2812,19.96875,11,20Q9.75,19.96875,8.90625,19.15625L5.96875,20.625Q6,20.8125,6,21Q6,21.1875,5.96875,21.375L8.90625,22.84375Q9.75,22.03125,11,22Z" fill="#1F2937" fill-opacity="1" style="mix-blend-mode:passthrough"/></g></svg>