<svg xmlns="http://www.w3.org/2000/svg" xmlns:xlink="http://www.w3.org/1999/xlink" fill="none" version="1.1" width="47.342464447021484" height="48" viewBox="0 0 47.342464447021484 48"><g transform="matrix(1,0,0,-1,0,96)"><path d="M39.0763,96Q37.2916,96,35.9765,94.6875L21.229,79.9688Q19.726,78.4688,18.5988,76.6875L11.7417,65.8125Q10.7084,64.2188,9.29941,62.8125L5.82387,59.3438L10.6145,54.5625L14.184,58.0312Q15.499,59.4375,17.0959,60.4688L27.9922,67.3125Q29.7769,68.4375,31.2798,69.9375L46.0274,84.6562Q47.3425,85.9688,47.3425,87.75Q47.3425,89.5312,46.0274,90.8438L42.1761,94.6875Q40.8611,96,39.0763,96ZM47.3425,55.5Q47.2485,59.7188,43.5851,61.9688Q39.8278,64.0312,36.0704,61.9688Q32.407,59.7188,32.3131,55.5Q32.407,51.28125,36.0704,49.03125Q39.8278,46.96875,43.5851,49.03125Q47.2485,51.28125,47.3425,55.5ZM0.657534,58.5938Q-0.657534,57,0.657534,55.40625L6.66928,49.40625Q8.26614,48.09375,9.86301,49.40625Q11.1781,51,9.86301,52.59375L3.85127,58.5938Q2.2544,59.9062,0.657534,58.5938Z" fill="#93C5FD" fill-opacity="1" style="mix-blend-mode:passthrough"/></g></svg>