<svg xmlns="http://www.w3.org/2000/svg" xmlns:xlink="http://www.w3.org/1999/xlink" fill="none" version="1.1" width="47.376583099365234" height="48.02430725097656" viewBox="0 0 47.376583099365234 48.02430725097656"><g transform="matrix(1,0,0,-1,0,96.04861450195312)"><path d="M42.9133,95.46180725097656Q44.4856,96.68050725097656,45.9653,95.36800725097656L46.7052,94.61810725097656Q48,93.11810725097656,46.7977,91.52430725097656L38.8439,82.52430725097656Q38.474,82.14930725097656,38.474,81.49310725097656L38.474,79.52430725097656Q38.3815,78.11810725097656,36.9942,78.02430725097656L35.5145,78.02430725097656Q34.8671,78.02430725097656,34.4046,77.55550725097656L9.34104,49.05555725097656Q8.41618,48.02430725097656,7.0289,48.02430725097656Q5.7341,48.02430725097656,4.80925,48.96180725097656L0.924856,52.89930725097656Q0,53.83680725097656,0,55.14930725097656Q0,56.55555725097656,1.01734,57.49305725097656L11.3757,66.77430725097656Q11.8382,67.24310725097656,11.8382,67.89930725097656L11.8382,70.52430725097656Q11.9306,71.83680725097656,13.3179,72.02430725097656L16.5549,72.02430725097656Q17.1098,72.02430725097656,17.4798,72.39930725097656L42.9133,95.46180725097656ZM39.9538,69.02430725097656Q40.5087,69.02430725097656,40.6936,68.46180725097656L42.0809,63.58680725097656L46.7977,62.27430725097656Q47.3526,62.08680725097656,47.3526,61.52430725097656Q47.3526,60.96180725097656,46.7977,60.77430725097656L42.0809,59.368107250976564L40.6936,54.58680725097656Q40.5087,54.02430725097656,39.9538,54.02430725097656Q39.3988,54.02430725097656,39.2139,54.58680725097656L37.9191,59.368107250976564L33.1098,60.77430725097656Q32.5549,60.96180725097656,32.5549,61.52430725097656Q32.5549,62.08680725097656,33.1098,62.27430725097656L37.9191,63.58680725097656L39.2139,68.46180725097656Q39.3988,69.02430725097656,39.9538,69.02430725097656ZM8.13873,89.46180725097656L9.52601,84.58680725097656L8.13873,89.46180725097656L9.52601,84.58680725097656L14.2428,83.27430725097656Q14.7977,83.08680725097656,14.7977,82.52430725097656Q14.7977,81.96180725097656,14.2428,81.77430725097656L9.52601,80.36810725097656L8.13873,75.58680725097656Q7.95376,75.02430725097656,7.39884,75.02430725097656Q6.84393,75.02430725097656,6.65896,75.58680725097656L5.36416,80.36810725097656L0.554913,81.77430725097656Q0,81.96180725097656,0,82.52430725097656Q0,83.08680725097656,0.554913,83.27430725097656L5.36416,84.58680725097656L6.65896,89.46180725097656Q6.84393,90.02430725097656,7.39884,90.02430725097656Q7.95376,90.02430725097656,8.13873,89.46180725097656ZM19.237,96.02430725097656Q19.7919,96.02430725097656,19.9769,95.46180725097656L20.6243,92.93050725097656L23.1214,92.27430725097656Q23.6763,92.08680725097656,23.6763,91.52430725097656Q23.6763,90.96180725097656,23.1214,90.77430725097656L20.6243,90.11810725097656L19.9769,87.58680725097656Q19.7919,87.02430725097656,19.237,87.02430725097656Q18.6821,87.02430725097656,18.4971,87.58680725097656L17.8497,90.11810725097656L15.3526,90.77430725097656Q14.7977,90.96180725097656,14.7977,91.52430725097656Q14.7977,92.08680725097656,15.3526,92.27430725097656L17.8497,92.93050725097656L18.4971,95.46180725097656Q18.6821,96.02430725097656,19.237,96.02430725097656Z" fill="#86EFAC" fill-opacity="1" style="mix-blend-mode:passthrough"/></g></svg>